<svg xmlns:xlink="http://www.w3.org/1999/xlink" width="167" height="32" viewBox="0 0 167 32" fill="none" xmlns="http://www.w3.org/2000/svg">
<path fill-rule="evenodd" clip-rule="evenodd" d="M11.0779 1.83247L11.0686 1.83116C10.872 1.80344 10.6111 1.8 10.1828 1.8C9.4392 1.8 8.68609 1.91452 7.91801 2.15202C5.53105 2.95668 3.55913 5.0594 2.50506 8.34963C1.49643 11.5549 1.5623 15.4146 2.75247 19.212C4.74922 25.4378 9.26094 29.6437 13.5631 30.1643L13.5672 30.1648C13.836 30.1979 14.1234 30.2 14.4839 30.2C15.2275 30.2 15.9806 30.0855 16.7487 29.848C19.157 29.0364 21.1574 26.967 22.1544 23.6736L22.1573 23.6639L22.1604 23.6543C23.1703 20.4482 23.1048 16.587 21.9142 12.788C19.9217 6.57563 15.4118 2.39725 11.0872 1.83369L11.0779 1.83247ZM23.63 12.2439C24.9154 16.3415 25.0143 20.5854 23.8772 24.1951C22.7401 27.9512 20.3671 30.5366 17.3019 31.561C16.3626 31.8537 15.4232 32 14.4839 32C14.1378 32 13.7423 32 13.3468 31.9512C8.10635 31.3171 3.16251 26.3902 1.03666 19.7561C-0.248739 15.6585 -0.347616 11.4146 0.789467 7.80488C1.97599 4.09756 4.29959 1.46341 7.36477 0.439024C8.3041 0.146341 9.24343 0 10.1828 0C10.5783 0 10.9738 0 11.3198 0.0487805C16.5603 0.731707 21.5042 5.60976 23.63 12.2439Z" fill="black"></path>
<path d="M9.97778 15.1096C10.9061 15.1096 11.6587 14.367 11.6587 13.451C11.6587 12.535 10.9061 11.7925 9.97778 11.7925C9.04944 11.7925 8.29688 12.535 8.29688 13.451C8.29688 14.367 9.04944 15.1096 9.97778 15.1096Z" fill="black"></path>
<path d="M18.0894 21.1098L12.75 7.5L21.1051 19.939L18.0894 21.1098Z" fill="black"></path>
<path d="M61.184 15.7931V24.6582H57.8038V16.2234C57.8038 13.9856 56.6474 12.6946 54.6015 12.6946C52.7335 12.6946 51.4882 13.9856 51.3103 15.707V24.6582H48.0191V16.2234C48.0191 13.9856 46.7738 12.6946 44.9947 12.6946C42.8599 12.6946 41.5256 14.2438 41.5256 16.2234V24.5721H38.2344V9.9404H41.3477V11.92C42.1483 10.6289 43.4825 9.68219 45.7063 9.68219C47.8412 9.68219 49.5313 10.6289 50.5097 12.3503C51.3993 10.8011 53.0893 9.68219 55.4021 9.68219C58.8712 9.76826 61.184 12.1782 61.184 15.7931Z" fill="black"></path>
<path d="M64.3831 31.8884L68.119 23.5397L62.0703 10.0269H65.8063L69.8981 20.0108L73.9899 10.0269H77.6369L67.9411 31.8884H64.3831Z" fill="black"></path>
<path d="M102.171 15.793V24.6581H98.791V16.2234C98.791 13.9856 97.635 12.6945 95.589 12.6945C93.7209 12.6945 92.4756 13.9856 92.2977 15.707V24.6581H88.9175V16.2234C88.9175 13.9856 87.6722 12.6945 85.8932 12.6945C83.7583 12.6945 82.424 14.2438 82.424 16.2234V24.572H79.1328V9.94034H82.2461V11.9199C83.0467 10.6289 84.381 9.68213 86.6048 9.68213C88.7396 9.68213 90.4297 10.6289 91.4082 12.3503C92.2977 10.801 93.9878 9.68213 96.301 9.68213C99.859 9.7682 102.171 12.1781 102.171 15.793Z" fill="black"></path>
<path d="M109.024 4.94889C109.024 6.06779 108.046 6.92848 106.89 6.92848C105.733 6.92848 104.844 6.06779 104.844 4.94889C104.844 3.83 105.822 2.96931 106.89 2.96931C108.135 2.88324 109.024 3.83 109.024 4.94889ZM105.289 24.6587V10.027H108.58V24.6587H105.289Z" fill="black"></path>
<path d="M125.393 15.793V24.6581H122.012V16.2234C122.012 13.9856 120.678 12.6945 118.721 12.6945C116.586 12.6945 115.252 14.2438 115.252 16.2234V24.572H111.961V9.94034H115.074V11.9199C115.875 10.6289 117.298 9.68213 119.522 9.68213C122.902 9.7682 125.393 12.006 125.393 15.793Z" fill="black"></path>
<path d="M139.885 24.6584V22.5928C139.084 23.9699 137.216 24.9166 134.903 24.9166C130.723 24.9166 127.609 21.9903 127.609 17.3426C127.609 12.6948 130.723 9.76849 134.903 9.76849C137.216 9.76849 138.906 10.6292 139.707 11.8341V2.45264H142.998V24.6584H139.885ZM130.99 17.3426C130.99 20.441 132.858 22.1624 135.437 22.1624C137.928 22.1624 139.707 20.6132 139.707 17.6868V16.9122C139.707 13.9859 137.928 12.4366 135.437 12.4366C132.858 12.4366 130.99 14.2441 130.99 17.3426Z" fill="black"></path>
<path d="M150 4.31949V2.90912H156.645V4.31949H154.168V11H152.477V4.31949H150Z" fill="black"></path>
<path d="M158.184 2.90912H160.294L162.522 8.34518H162.617L164.845 2.90912H166.955V11H165.295V5.73382H165.228L163.134 10.9605H162.005L159.911 5.71406H159.844V11H158.184V2.90912Z" fill="black"></path>
</svg>