<svg xmlns:xlink="http://www.w3.org/1999/xlink" width="74" height="39" viewBox="0 0 74 39" fill="none" xmlns="http://www.w3.org/2000/svg">
  <path d="M31.4439 38V1.36832H24.3139V25.6L9.07222 1.36832H0.185547V38H7.31555V12.0117L23.9522 38H31.4439Z" fill="#FF5924"></path>
  <path d="M43.72 19.6583C43.72 11.3917 49.5066 7.46499 55.1383 7.46499C60.8216 7.46499 66.6083 11.3917 66.6083 19.6583C66.6083 27.925 60.8216 31.8517 55.1383 31.8517C49.5066 31.8517 43.72 27.925 43.72 19.6583ZM36.3316 19.71C36.3316 31.49 45.2183 38.775 55.1383 38.775C65.11 38.775 73.9966 31.49 73.9966 19.71C73.9966 7.87832 65.11 0.593323 55.1383 0.593323C45.2183 0.593323 36.3316 7.87832 36.3316 19.71Z" fill="#FF5924"></path>
  </svg>